<?xml version="1.0" encoding="utf-8"?>
<!-- Generator: Adobe Illustrator 13.0.2, SVG Export Plug-In  -->
<!DOCTYPE svg PUBLIC "-//W3C//DTD SVG 1.1//EN" "http://www.w3.org/Graphics/SVG/1.1/DTD/svg11.dtd" [
	<!ENTITY ns_flows "http://ns.adobe.com/Flows/1.0/">
]>
<svg version="1.1"
	 xmlns="http://www.w3.org/2000/svg"
	 x="0px" y="0px" width="209px" height="39px" viewBox="-0.692 -0.542 209 39" enable-background="new -0.692 -0.542 209 39"
	 xml:space="preserve">
<defs>
</defs>
<path fill="#7C7D7E" d="M103.208,30.332h1.171v-4.454h-3.272v1.376h1.643c-0.146,1.122-0.81,1.774-1.738,1.774
	c-1.184,0-1.871-1.062-1.871-3.078c0-2.064,0.664-3.127,1.919-3.127c0.761,0,1.28,0.399,1.63,1.22l1.497-0.375
	c-0.435-1.436-1.521-2.221-3.091-2.221c-2.27,0-3.633,1.606-3.633,4.406c0,2.934,1.278,4.624,3.344,4.624
	c1.026,0,1.762-0.338,2.317-1.063L103.208,30.332"/>
<path fill-rule="evenodd" clip-rule="evenodd" fill="#7C7D7E" d="M108.292,25.382v-2.439h1.437c1.038,0,1.545,0.362,1.545,1.219
	c0,0.845-0.495,1.22-1.545,1.22H108.292 M106.675,30.332h1.617v-3.561h1.509l1.689,3.561h1.775l-1.944-3.935
	c1.038-0.29,1.618-1.075,1.618-2.222c0-1.786-1.087-2.619-3.296-2.619h-2.969V30.332z"/>
<path fill-rule="evenodd" clip-rule="evenodd" fill="#7C7D7E" d="M116.474,25.961c0-2.016,0.688-3.054,1.967-3.054
	c1.28,0,1.968,1.038,1.968,3.054c0,2.004-0.688,3.03-1.968,3.03C117.161,28.992,116.474,27.965,116.474,25.961 M114.796,25.961
	c0,2.849,1.399,4.515,3.645,4.515s3.646-1.666,3.646-4.515c0-2.861-1.389-4.515-3.646-4.515
	C116.184,21.446,114.796,23.101,114.796,25.961z"/>
<path fill="#7C7D7E" d="M124.12,27.108c0,2.257,1.074,3.368,3.319,3.368c2.137,0,3.332-1.111,3.332-3.103v-5.818h-1.605v5.625
	c0,1.28-0.435,1.847-1.727,1.847c-1.219,0-1.666-0.603-1.666-1.847v-5.625h-1.653V27.108"/>
<path fill-rule="evenodd" clip-rule="evenodd" fill="#7C7D7E" d="M135,25.395v-2.475h1.231c1.134,0,1.654,0.29,1.654,1.243
	c0,0.942-0.532,1.232-1.654,1.232H135 M133.335,30.332H135v-3.549h1.63c1.906,0,2.909-0.918,2.909-2.62
	c0-1.762-1.015-2.607-3.066-2.607h-3.138V30.332z"/>
<path fill-rule="evenodd" clip-rule="evenodd" fill="#7C7D7E" d="M99.658,14.952V9.084h0.882c1.774,0,2.583,0.905,2.583,2.897
	c0,2.088-0.748,2.97-2.56,2.97H99.658 M98.005,16.399h2.62c2.775,0,4.176-1.485,4.176-4.418c0-2.873-1.4-4.358-4.116-4.358h-2.68
	V16.399z"/>
<polyline fill="#7C7D7E" points="106.931,16.399 112.81,16.399 112.81,14.902 108.572,14.902 108.572,12.524 111.529,12.524 
	111.529,11.125 108.572,11.125 108.572,9.048 112.629,9.048 112.629,7.624 106.931,7.624 106.931,16.399 "/>
<path fill="#7C7D7E" d="M114.759,13.176c0,2.257,1.074,3.368,3.318,3.368c2.138,0,3.332-1.111,3.332-3.102V7.624h-1.604v5.625
	c0,1.28-0.435,1.847-1.728,1.847c-1.219,0-1.664-0.603-1.664-1.847V7.624h-1.654V13.176"/>
<polyline fill="#7C7D7E" points="125.542,16.399 127.208,16.399 127.208,9.073 129.514,9.073 129.514,7.624 123.236,7.624 
	123.236,9.073 125.542,9.073 125.542,16.399 "/>
<path fill="#7C7D7E" d="M130.688,14.419c0.567,1.377,1.702,2.101,3.319,2.101c1.884,0,2.981-1.014,2.981-2.608
	c0-1.376-0.724-1.943-2.185-2.559c-1.388-0.591-2.245-0.736-2.245-1.557c0-0.567,0.435-0.929,1.159-0.929
	c0.748,0,1.219,0.35,1.581,1.122l1.497-0.543c-0.459-1.268-1.461-1.919-2.958-1.919c-1.738,0-2.86,1.002-2.86,2.39
	c0,0.833,0.362,1.509,1.026,1.931c0.579,0.374,1.303,0.616,2.088,0.905c0.905,0.339,1.304,0.64,1.304,1.232
	c0,0.664-0.531,1.11-1.425,1.11c-0.784,0-1.328-0.41-1.786-1.339L130.688,14.419"/>
<path fill="#7C7D7E" d="M143.647,13.781c-0.229,0.808-0.869,1.303-1.677,1.303c-1.256,0-1.812-0.99-1.812-3.017
	c0-2.113,0.579-3.163,1.774-3.163c0.797,0,1.316,0.434,1.533,1.279l1.521-0.374c-0.338-1.485-1.376-2.294-2.957-2.294
	c-2.245,0-3.549,1.618-3.549,4.539c0,2.97,1.184,4.491,3.452,4.491c1.666,0,2.801-0.833,3.235-2.342L143.647,13.781"/>
<polyline fill="#7C7D7E" points="147.076,16.399 148.73,16.399 148.73,12.585 152.074,12.585 152.074,16.399 153.729,16.399 
	153.729,7.624 152.074,7.624 152.074,11.101 148.73,11.101 148.73,7.624 147.076,7.624 147.076,16.399 "/>
<polyline fill="#7C7D7E" points="156.344,16.399 162.223,16.399 162.223,14.902 157.985,14.902 157.985,12.524 160.942,12.524 
	160.942,11.125 157.985,11.125 157.985,9.048 162.042,9.048 162.042,7.624 156.344,7.624 156.344,16.399 "/>
<path fill-rule="evenodd" clip-rule="evenodd" fill="#7C7D7E" d="M169.989,11.136V8.976h1.256c1.087,0,1.63,0.278,1.63,1.075
	c0,0.736-0.52,1.086-1.533,1.086H169.989 M169.989,15.047v-2.595h1.425c1.099,0,1.642,0.41,1.642,1.279
	c0,0.93-0.543,1.316-1.714,1.316H169.989z M168.372,16.399h3.103c2.173,0,3.235-0.797,3.235-2.462c0-1.087-0.495-1.799-1.485-2.137
	c0.893-0.435,1.28-1.014,1.28-1.847c0-1.509-1.015-2.33-2.946-2.33h-3.187V16.399z"/>
<path fill-rule="evenodd" clip-rule="evenodd" fill="#7C7D7E" d="M178.156,12.029c0-2.016,0.688-3.054,1.968-3.054
	s1.968,1.038,1.968,3.054c0,2.004-0.688,3.03-1.968,3.03S178.156,14.034,178.156,12.029 M176.479,12.029
	c0,2.849,1.4,4.515,3.646,4.515c2.246,0,3.646-1.666,3.646-4.515c0-2.861-1.388-4.515-3.646-4.515S176.479,9.168,176.479,12.029z
	 M180.485,6.598h1.328V5.162h-1.328V6.598z M178.434,6.598h1.328V5.162h-1.328V6.598z"/>
<path fill-rule="evenodd" clip-rule="evenodd" fill="#7C7D7E" d="M187.421,11.451V9.011h1.437c1.038,0,1.545,0.362,1.545,1.22
	c0,0.845-0.495,1.219-1.545,1.219H187.421 M185.804,16.399h1.617v-3.561h1.509l1.69,3.561h1.774l-1.944-3.935
	c1.038-0.29,1.618-1.075,1.618-2.221c0-1.787-1.087-2.62-3.296-2.62h-2.969V16.399z"/>
<path fill="#7C7D7E" d="M193.804,14.419c0.566,1.377,1.702,2.101,3.32,2.101c1.883,0,2.98-1.014,2.98-2.608
	c0-1.376-0.724-1.943-2.185-2.559c-1.389-0.591-2.245-0.736-2.245-1.557c0-0.567,0.435-0.929,1.159-0.929
	c0.748,0,1.219,0.35,1.581,1.122l1.496-0.543c-0.459-1.268-1.46-1.919-2.957-1.919c-1.738,0-2.86,1.002-2.86,2.39
	c0,0.833,0.362,1.509,1.026,1.931c0.578,0.374,1.303,0.616,2.088,0.905c0.905,0.339,1.304,0.64,1.304,1.232
	c0,0.664-0.531,1.11-1.425,1.11c-0.784,0-1.327-0.41-1.786-1.339L193.804,14.419"/>
<polyline fill="#7C7D7E" points="202.177,16.399 208.056,16.399 208.056,14.902 203.818,14.902 203.818,12.524 206.776,12.524 
	206.776,11.125 203.818,11.125 203.818,9.048 207.875,9.048 207.875,7.624 202.177,7.624 202.177,16.399 "/>
<polyline fill="#2B328F" points="9.177,23.438 0,28.645 0,34.276 14.091,26.224 9.177,23.438 "/>
<polyline fill="#2B328F" points="23.917,25.4 19.722,23.018 9.895,23.018 19.002,28.188 23.917,25.4 "/>
<polyline fill="#2B328F" points="38.749,17.761 19.754,28.617 29.601,28.62 43.599,20.599 38.749,17.761 "/>
<polyline fill="#2B328F" points="53.518,19.77 49.235,17.342 39.438,17.342 48.566,22.605 53.518,19.77 "/>
<polyline fill="#2B328F" points="82.867,9.412 59.117,23.017 49.294,23.02 82.867,3.838 82.867,9.412 "/>
<rect x="89.725" fill="#7C7D7E" width="1.333" height="37.938"/>
</svg>
