<?xml version="1.0" encoding="utf-8"?>
<!-- Generator: Adobe Illustrator 15.1.0, SVG Export Plug-In . SVG Version: 6.00 Build 0)  -->
<!DOCTYPE svg PUBLIC "-//W3C//DTD SVG 1.1//EN" "http://www.w3.org/Graphics/SVG/1.1/DTD/svg11.dtd">
<svg version="1.1" id="Logo" xmlns="http://www.w3.org/2000/svg"  x="0px" y="0px"
	 width="623.622px" height="288.626px" viewBox="14.173 4.759 623.622 288.626"
	 enable-background="new 14.173 4.759 623.622 288.626" xml:space="preserve">
<path fill="#FFD000" d="M544.336,115.115l27.32,21.016c1.666,1.293,3.688,2.002,5.699,2.002c1.858,0,3.608-0.585,5.06-1.69
	c3.12-2.399,4.263-6.883,2.772-10.896l-12.673-33.892l27.581-22.582c3.355-2.74,4.614-7.424,3.064-11.392
	c-1.518-3.924-5.395-6.348-9.617-5.916l-34.312,3.518l-11.35-31.771c-1.229-3.461-4.512-5.533-7.964-5.004
	c-3.491,0.507-6.533,3.525-7.405,7.342l-7.604,32.665l-28.556,2.456c-1.468,0.122-2.854,0.782-4.012,1.911
	c-1.154,1.137-2.007,2.694-2.393,4.387c-0.807,3.506,0.406,7.279,2.951,9.178l23.527,17.534l-7.699,31.169
	c-0.881,3.558,0.42,7.621,3.16,9.883c2.65,2.185,6.254,2.261,8.715,0.173L544.336,115.115z"/>
<g>
	<path fill="#009CDE" d="M634.993,81.144c-5.224-7.834-15.357-9.938-23.279-10.271c-1.261,2.323-2.99,4.435-5.149,6.188
		l-22.002,17.917l10.156,27.064c3.122,8.379,0.684,17.463-6.065,22.619c-3.212,2.431-7.03,3.706-11.065,3.706
		c-0.712,0-1.433-0.04-2.143-0.122c-3.542-0.401-6.942-1.805-9.829-4.058l-20.925-16.186l-17.816,15.003
		c-3.376,2.847-7.814,4.178-12.173,3.65c-3.183-0.395-6.22-1.725-8.791-3.851c-5.734-4.756-8.361-12.889-6.546-20.242l6.034-24.499
		L487.278,84.48c-0.809-0.604-1.546-1.283-2.228-2.013L64.914,122.549c0,0-21.393,2.033-31.048,14.189
		c-7.745,9.75-12.602,31.912-12.602,31.912l-6.372,37.555c0,0-1.844,11.831,0.375,21.652c4.016,17.779,25.617,20.291,25.617,20.291
		l517.558,45.156c0,0,19.393,1.201,32.396-5.684c17.86-9.452,20.163-27.576,20.163-27.576l24.299-140.622
		C635.299,119.423,641.113,90.322,634.993,81.144z M93.144,165.502h-27.09l-2.755,15.607h19.744l-2.64,14.689H60.658l-2.984,17.214
		h30.189c-0.804,4.592-2.296,9.871-3.903,14.92H38.045l13.659-77.352h45.227C96.128,154.943,94.636,161.025,93.144,165.502z
		 M156.642,218.753c-1.493,7.92-5.625,10.329-12.053,10.329c-7.576,0-11.249-3.327-12.397-8.607h-0.804
		c-5.166,5.624-9.757,8.607-18.137,8.607c-8.265,0-15.497-4.706-15.497-14.576c0-1.262,0.115-2.753,0.345-4.246l7.346-41.772
		c4.707-0.574,10.675-0.919,15.726-0.919l-7.231,40.628c-0.115,0.803-0.115,1.031-0.115,1.835c0,3.79,2.41,5.51,8.15,5.51
		c2.87,0,7.002-0.689,9.757-2.183l7.806-44.871c4.707-0.574,10.675-0.919,15.726-0.919l-7.346,41.431
		c-0.115,0.688-0.115,1.491-0.115,1.951c0,1.722,0.689,2.639,2.87,2.639h6.887L156.642,218.753z M197.227,182.947
		c-4.018,0-8.265,1.146-11.364,2.867l-7.346,42.119H163.02l10.446-59.334c4.592-0.572,10.676-0.917,15.611-0.917l-1.377,7.688h0.804
		c5.854-7.345,10.561-8.492,14.348-8.492c1.377,0,3.214,0.229,4.362,0.574c-0.803,5.165-2.295,11.017-4.248,16.181
		C201.245,183.176,199.064,182.947,197.227,182.947z M262.312,198.898c-3.559,20.084-16.3,30.185-31.797,30.185
		c-14.922,0-23.876-7.688-23.876-23.184c0-2.755,0.23-5.624,0.804-8.837c3.329-19.396,15.497-30.184,31.567-30.184
		c14.348,0,24.105,7.229,24.105,23.298C263.115,192.815,262.885,195.8,262.312,198.898z M300.28,203.719h-8.265l-4.362,24.215
		h-16.874l10.561-59.678c0.114-0.688,0.114-1.032,0.114-1.491c0-1.606-0.918-2.296-3.099-2.296h-5.51l0.804-4.706
		c1.263-7.345,5.739-10.329,12.512-10.329c5.625,0,9.413,1.378,11.938,4.019c4.019-3.1,8.839-4.019,14.004-4.019
		c9.872,0,19.744,5.396,19.744,21.691C331.848,193.045,316.81,203.719,300.28,203.719z M382.236,202.456h-32.829
		c-0.345,1.263-0.575,2.982-0.575,3.789c0,5.966,2.871,8.261,11.365,8.261c5.279,0,12.396-1.721,16.414-3.786
		c0.688,4.246,1.147,9.984,1.147,14.805c-5.625,2.409-14.923,3.559-20.317,3.559c-16.301,0-24.564-8.262-24.564-23.527
		c0-2.524,0.229-5.279,0.688-8.147c3.675-21.807,14.693-30.527,29.73-30.527c14.693,0,21.352,8.15,21.352,20.544
		C384.646,191.898,383.729,197.293,382.236,202.456z M441.189,202.456h-32.83c-0.345,1.263-0.574,2.982-0.574,3.789
		c0,5.966,2.87,8.261,11.364,8.261c5.279,0,12.396-1.721,16.415-3.786c0.688,4.246,1.146,9.984,1.146,14.805
		c-5.624,2.409-14.922,3.559-20.316,3.559c-16.301,0-24.564-8.262-24.564-23.527c0-2.524,0.229-5.279,0.688-8.147
		c3.674-21.807,14.692-30.527,29.73-30.527c14.692,0,21.352,8.15,21.352,20.544C443.6,191.898,442.682,197.293,441.189,202.456z
		 M483.807,182.947c-4.018,0-8.265,1.146-11.362,2.867l-7.349,42.119H449.6l10.445-59.334c4.592-0.572,10.676-0.917,15.612-0.917
		l-1.378,7.688h0.804c5.854-7.345,10.562-8.492,14.349-8.492c1.377,0,3.215,0.229,4.361,0.574
		c-0.803,5.165-2.295,11.017-4.246,16.181C487.824,183.176,485.645,182.947,483.807,182.947z M535.438,182.489
		c-4.019-1.265-10.904-2.298-15.842-2.298c-4.477,0-6.771,1.38-6.771,5.279c0,7.574,22.154,4.478,22.154,22.608
		c0,12.74-9.643,21.003-25.941,21.003c-6.772,0-14.004-1.723-18.481-4.361c0.919-4.817,2.984-10.788,4.706-13.887
		c4.247,2.523,11.364,4.246,17.104,4.246c4.476,0,6.428-1.723,6.428-5.279c0-7.459-22.27-4.131-22.27-22.035
		c0-11.36,8.839-20.887,26.745-20.887c4.019,0,10.791,0.574,15.268,1.835C537.963,172.503,536.814,178.126,535.438,182.489z"/>
	<path fill="#009CDE" d="M237.747,179.962c-7.002,0-11.364,5.164-13.545,18.019c-0.574,3.216-0.804,5.854-0.804,8.148
		c0,7,2.64,9.871,8.265,9.871c7.347,0,11.708-4.938,14.119-18.021c0.459-2.755,0.689-5.165,0.689-7.229
		C246.47,183.176,243.371,179.962,237.747,179.962z"/>
	<path fill="#009CDE" d="M306.708,163.321c-2.984,0-5.396,0.229-7.576,0.688l-4.706,25.823h6.313c7.92,0,14.232-5.738,14.232-16.871
		C314.973,165.96,311.415,163.321,306.708,163.321z"/>
	<path fill="#009CDE" d="M362.148,178.47c-5.854,0-9.185,4.246-10.905,13.888h17.448c0.573-1.951,1.031-4.935,1.031-6.197
		C369.724,181.225,366.97,178.47,362.148,178.47z"/>
	<path fill="#009CDE" d="M421.102,178.47c-5.854,0-9.184,4.246-10.905,13.888h17.448c0.573-1.951,1.032-4.935,1.032-6.197
		C428.677,181.225,425.922,178.47,421.102,178.47z"/>
</g>
</svg>
